<svg xmlns="http://www.w3.org/2000/svg" xmlns:xlink="http://www.w3.org/1999/xlink" width="500" zoomAndPan="magnify" viewBox="0 0 375 374.999991" height="500" preserveAspectRatio="xMidYMid meet" version="1.0"><defs><g/><clipPath id="37100132af"><path d="M 11.335938 18.6875 L 77.855469 18.6875 L 77.855469 88 L 11.335938 88 Z M 11.335938 18.6875 " clip-rule="nonzero"/></clipPath><clipPath id="56c2e61397"><path d="M 44 0.6875 L 66.398438 0.6875 L 66.398438 35 L 44 35 Z M 44 0.6875 " clip-rule="nonzero"/></clipPath><clipPath id="7bc08938f8"><path d="M 1 0.6875 L 56 0.6875 L 56 62 L 1 62 Z M 1 0.6875 " clip-rule="nonzero"/></clipPath><clipPath id="dafacffc92"><path d="M 51 58 L 64 58 L 64 69.359375 L 51 69.359375 Z M 51 58 " clip-rule="nonzero"/></clipPath><clipPath id="40da899860"><rect x="0" width="67" y="0" height="70"/></clipPath><clipPath id="e087b5ea54"><path d="M 0.601562 30 L 38 30 L 38 94 L 0.601562 94 Z M 0.601562 30 " clip-rule="nonzero"/></clipPath><clipPath id="33da1b008f"><path d="M 53 36 L 94.921875 36 L 94.921875 94 L 53 94 Z M 53 36 " clip-rule="nonzero"/></clipPath><clipPath id="2c8faacf96"><path d="M 80.722656 81.5625 L 92.816406 81.5625 L 92.816406 93.65625 L 80.722656 93.65625 Z M 80.722656 81.5625 " clip-rule="nonzero"/></clipPath><clipPath id="6c610c905f"><rect x="0" width="95" y="0" height="95"/></clipPath></defs><rect x="-37.5" width="450" fill="#ffffff" y="-37.499999" height="449.999989" fill-opacity="1"/><rect x="-37.5" width="450" fill="#030037" y="-37.499999" height="449.999989" fill-opacity="1"/><g transform="matrix(1, 0, 0, 1, 21, 138)"><g clip-path="url(#6c610c905f)"><g clip-path="url(#37100132af)"><g transform="matrix(1, 0, 0, 1, 11, 18)"><g clip-path="url(#40da899860)"><g clip-path="url(#56c2e61397)"><path fill="#e7e3dd" d="M 65.320312 9.078125 L 50.71875 34.363281 L 44.28125 23.199219 L 55.648438 3.503906 C 56.675781 1.722656 58.554688 0.707031 60.484375 0.707031 C 61.429688 0.707031 62.390625 0.957031 63.265625 1.460938 C 65.949219 3.011719 66.855469 6.40625 65.320312 9.078125 Z M 65.320312 9.078125 " fill-opacity="1" fill-rule="nonzero"/></g><g clip-path="url(#7bc08938f8)"><path fill="#e7e3dd" d="M 55.074219 48.253906 L 48.882812 37.53125 L 42.429688 26.367188 L 32.457031 9.09375 C 29.472656 3.914062 23.898438 0.695312 17.925781 0.695312 C 11.855469 0.695312 6.417969 3.832031 3.378906 9.09375 C 0.335938 14.339844 0.335938 20.625 3.378906 25.886719 L 20.828125 56.089844 C 22.636719 59.226562 25.882812 61.105469 29.5 61.105469 C 33.117188 61.105469 36.363281 59.226562 38.183594 56.089844 L 38.816406 54.996094 L 40.621094 51.871094 L 34.171875 40.707031 L 29.5 48.789062 L 13.0625 20.3125 C 11.597656 17.777344 12.570312 15.53125 13.0625 14.679688 C 13.554688 13.832031 15.007812 11.859375 17.9375 11.859375 C 19.9375 11.859375 21.816406 12.941406 22.800781 14.679688 L 35.992188 37.53125 L 42.445312 48.691406 L 45.402344 53.828125 C 46.953125 56.5 50.363281 57.417969 53.035156 55.871094 C 55.703125 54.335938 56.621094 50.925781 55.074219 48.253906 Z M 55.074219 48.253906 " fill-opacity="1" fill-rule="nonzero"/></g><g clip-path="url(#dafacffc92)"><path fill="#e7e3dd" d="M 52.363281 61.515625 C 55.347656 54.789062 65.308594 58.910156 62.675781 65.789062 C 59.675781 72.5 49.71875 68.378906 52.363281 61.515625 Z M 52.363281 61.515625 " fill-opacity="1" fill-rule="nonzero"/></g></g></g></g><g clip-path="url(#e087b5ea54)"><path fill="#ff3131" d="M 10.394531 47.25 C 12.277344 48.871094 14.128906 50.460938 15.976562 52.054688 C 16.140625 51.914062 8.566406 37.859375 4.347656 30.507812 C -6.578125 54.066406 8.648438 89.386719 37.632812 93.765625 C 16.839844 83.472656 4.542969 62.582031 10.394531 47.25 Z M 10.394531 47.25 " fill-opacity="1" fill-rule="evenodd"/></g><path fill="#00bf63" d="M 59.941406 18.722656 C 59.980469 18.835938 75.683594 19.066406 84.046875 19.066406 C 74.03125 6.953125 61.769531 0.75 46.480469 1.246094 C 32.480469 1.703125 20.753906 7.167969 11.683594 17.933594 C 34.28125 -0.699219 56.027344 6.566406 66.480469 15.921875 C 64.253906 16.875 62.097656 17.800781 59.941406 18.722656 Z M 59.941406 18.722656 " fill-opacity="1" fill-rule="evenodd"/><g clip-path="url(#33da1b008f)"><path fill="#ffde59" d="M 91.945312 36.042969 C 92.957031 46.066406 90.984375 55.234375 86.097656 63.710938 C 81.199219 72.207031 74.164062 78.117188 64.390625 81.402344 C 65.199219 78.347656 65.832031 75.9375 66.46875 73.53125 C 66.359375 73.480469 57.769531 87.003906 53.527344 93.910156 C 77.789062 95.234375 102.738281 57.71875 91.945312 36.042969 Z M 91.945312 36.042969 " fill-opacity="1" fill-rule="evenodd"/></g><g clip-path="url(#2c8faacf96)"><path fill="#00bf63" d="M 92.8125 87.574219 L 92.757812 88.394531 C 92.503906 90.050781 91.746094 91.375 90.480469 92.371094 C 89.207031 93.363281 87.707031 93.773438 85.972656 93.59375 C 84.320312 93.339844 82.996094 92.578125 82 91.316406 C 81.679688 90.90625 81.417969 90.460938 81.210938 89.976562 L 80.949219 89.234375 C 80.804688 88.722656 80.730469 88.1875 80.726562 87.628906 C 80.761719 85.917969 81.34375 84.488281 82.476562 83.347656 C 83.609375 82.207031 85.03125 81.609375 86.742188 81.558594 C 88.453125 81.59375 89.882812 82.179688 91.023438 83.3125 C 92.164062 84.441406 92.761719 85.863281 92.8125 87.574219 " fill-opacity="1" fill-rule="nonzero"/></g></g></g><g fill="#fffef0" fill-opacity="1"><g transform="translate(131.983486, 185.216179)"><g><path d="M 18.84375 -20.703125 L 11.8125 0 L 7.03125 0 L 0 -20.703125 L 4.4375 -20.703125 L 8.328125 -8.390625 C 8.390625 -8.179688 8.492188 -7.789062 8.640625 -7.21875 C 8.796875 -6.644531 8.953125 -6.039062 9.109375 -5.40625 C 9.265625 -4.769531 9.375 -4.242188 9.4375 -3.828125 C 9.488281 -4.242188 9.585938 -4.765625 9.734375 -5.390625 C 9.878906 -6.023438 10.023438 -6.628906 10.171875 -7.203125 C 10.316406 -7.773438 10.425781 -8.171875 10.5 -8.390625 L 14.421875 -20.703125 Z M 18.84375 -20.703125 "/></g></g></g><g fill="#fffef0" fill-opacity="1"><g transform="translate(150.187579, 185.216179)"><g><path d="M 6.578125 -15.828125 L 6.578125 0 L 2.265625 0 L 2.265625 -15.828125 Z M 4.4375 -22.03125 C 5.070312 -22.03125 5.617188 -21.878906 6.078125 -21.578125 C 6.546875 -21.285156 6.78125 -20.734375 6.78125 -19.921875 C 6.78125 -19.117188 6.546875 -18.5625 6.078125 -18.25 C 5.617188 -17.945312 5.070312 -17.796875 4.4375 -17.796875 C 3.78125 -17.796875 3.222656 -17.945312 2.765625 -18.25 C 2.304688 -18.5625 2.078125 -19.117188 2.078125 -19.921875 C 2.078125 -20.734375 2.304688 -21.285156 2.765625 -21.578125 C 3.222656 -21.878906 3.78125 -22.03125 4.4375 -22.03125 Z M 4.4375 -22.03125 "/></g></g></g><g fill="#fffef0" fill-opacity="1"><g transform="translate(158.397295, 185.216179)"><g><path d="M 13.3125 -4.703125 C 13.3125 -3.628906 13.054688 -2.71875 12.546875 -1.96875 C 12.046875 -1.226562 11.296875 -0.664062 10.296875 -0.28125 C 9.296875 0.09375 8.050781 0.28125 6.5625 0.28125 C 5.457031 0.28125 4.507812 0.207031 3.71875 0.0625 C 2.925781 -0.0703125 2.128906 -0.304688 1.328125 -0.640625 L 1.328125 -4.203125 C 2.191406 -3.816406 3.113281 -3.5 4.09375 -3.25 C 5.082031 -3 5.953125 -2.875 6.703125 -2.875 C 7.535156 -2.875 8.132812 -3 8.5 -3.25 C 8.863281 -3.5 9.046875 -3.828125 9.046875 -4.234375 C 9.046875 -4.492188 8.972656 -4.726562 8.828125 -4.9375 C 8.679688 -5.15625 8.367188 -5.398438 7.890625 -5.671875 C 7.410156 -5.941406 6.65625 -6.289062 5.625 -6.71875 C 4.632812 -7.132812 3.816406 -7.554688 3.171875 -7.984375 C 2.535156 -8.410156 2.0625 -8.910156 1.75 -9.484375 C 1.445312 -10.066406 1.296875 -10.804688 1.296875 -11.703125 C 1.296875 -13.171875 1.863281 -14.273438 3 -15.015625 C 4.144531 -15.753906 5.671875 -16.125 7.578125 -16.125 C 8.554688 -16.125 9.488281 -16.023438 10.375 -15.828125 C 11.269531 -15.628906 12.191406 -15.3125 13.140625 -14.875 L 11.84375 -11.765625 C 11.050781 -12.109375 10.304688 -12.382812 9.609375 -12.59375 C 8.921875 -12.8125 8.21875 -12.921875 7.5 -12.921875 C 6.875 -12.921875 6.398438 -12.835938 6.078125 -12.671875 C 5.753906 -12.503906 5.59375 -12.242188 5.59375 -11.890625 C 5.59375 -11.640625 5.675781 -11.414062 5.84375 -11.21875 C 6.007812 -11.019531 6.328125 -10.800781 6.796875 -10.5625 C 7.273438 -10.320312 7.976562 -10.007812 8.90625 -9.625 C 9.800781 -9.257812 10.578125 -8.875 11.234375 -8.46875 C 11.898438 -8.070312 12.410156 -7.578125 12.765625 -6.984375 C 13.128906 -6.398438 13.3125 -5.640625 13.3125 -4.703125 Z M 13.3125 -4.703125 "/></g></g></g><g fill="#fffef0" fill-opacity="1"><g transform="translate(172.170453, 185.216179)"><g><path d="M 6.578125 -15.828125 L 6.578125 0 L 2.265625 0 L 2.265625 -15.828125 Z M 4.4375 -22.03125 C 5.070312 -22.03125 5.617188 -21.878906 6.078125 -21.578125 C 6.546875 -21.285156 6.78125 -20.734375 6.78125 -19.921875 C 6.78125 -19.117188 6.546875 -18.5625 6.078125 -18.25 C 5.617188 -17.945312 5.070312 -17.796875 4.4375 -17.796875 C 3.78125 -17.796875 3.222656 -17.945312 2.765625 -18.25 C 2.304688 -18.5625 2.078125 -19.117188 2.078125 -19.921875 C 2.078125 -20.734375 2.304688 -21.285156 2.765625 -21.578125 C 3.222656 -21.878906 3.78125 -22.03125 4.4375 -22.03125 Z M 4.4375 -22.03125 "/></g></g></g><g fill="#fffef0" fill-opacity="1"><g transform="translate(180.380169, 185.216179)"><g><path d="M 16.65625 -7.9375 C 16.65625 -6.625 16.476562 -5.457031 16.125 -4.4375 C 15.769531 -3.414062 15.253906 -2.550781 14.578125 -1.84375 C 13.898438 -1.144531 13.085938 -0.613281 12.140625 -0.25 C 11.191406 0.101562 10.125 0.28125 8.9375 0.28125 C 7.820312 0.28125 6.796875 0.101562 5.859375 -0.25 C 4.929688 -0.613281 4.125 -1.144531 3.4375 -1.84375 C 2.757812 -2.550781 2.234375 -3.414062 1.859375 -4.4375 C 1.484375 -5.457031 1.296875 -6.625 1.296875 -7.9375 C 1.296875 -9.695312 1.609375 -11.1875 2.234375 -12.40625 C 2.859375 -13.625 3.742188 -14.546875 4.890625 -15.171875 C 6.046875 -15.804688 7.421875 -16.125 9.015625 -16.125 C 10.503906 -16.125 11.820312 -15.804688 12.96875 -15.171875 C 14.113281 -14.546875 15.015625 -13.625 15.671875 -12.40625 C 16.328125 -11.1875 16.65625 -9.695312 16.65625 -7.9375 Z M 5.703125 -7.9375 C 5.703125 -6.90625 5.816406 -6.035156 6.046875 -5.328125 C 6.273438 -4.617188 6.628906 -4.082031 7.109375 -3.71875 C 7.585938 -3.363281 8.210938 -3.1875 8.984375 -3.1875 C 9.753906 -3.1875 10.375 -3.363281 10.84375 -3.71875 C 11.320312 -4.082031 11.671875 -4.617188 11.890625 -5.328125 C 12.117188 -6.035156 12.234375 -6.90625 12.234375 -7.9375 C 12.234375 -8.988281 12.117188 -9.859375 11.890625 -10.546875 C 11.671875 -11.242188 11.320312 -11.765625 10.84375 -12.109375 C 10.363281 -12.460938 9.738281 -12.640625 8.96875 -12.640625 C 7.820312 -12.640625 6.988281 -12.25 6.46875 -11.46875 C 5.957031 -10.6875 5.703125 -9.507812 5.703125 -7.9375 Z M 5.703125 -7.9375 "/></g></g></g><g fill="#fffef0" fill-opacity="1"><g transform="translate(197.692413, 185.216179)"><g><path d="M 11.25 -16.125 C 12.945312 -16.125 14.304688 -15.664062 15.328125 -14.75 C 16.359375 -13.832031 16.875 -12.359375 16.875 -10.328125 L 16.875 0 L 12.5625 0 L 12.5625 -9.25 C 12.5625 -10.382812 12.351562 -11.238281 11.9375 -11.8125 C 11.53125 -12.382812 10.890625 -12.671875 10.015625 -12.671875 C 8.691406 -12.671875 7.785156 -12.222656 7.296875 -11.328125 C 6.816406 -10.429688 6.578125 -9.140625 6.578125 -7.453125 L 6.578125 0 L 2.265625 0 L 2.265625 -15.828125 L 5.5625 -15.828125 L 6.140625 -13.8125 L 6.390625 -13.8125 C 6.722656 -14.351562 7.140625 -14.789062 7.640625 -15.125 C 8.148438 -15.46875 8.710938 -15.71875 9.328125 -15.875 C 9.953125 -16.039062 10.59375 -16.125 11.25 -16.125 Z M 11.25 -16.125 "/></g></g></g><g fill="#fffef0" fill-opacity="1"><g transform="translate(216.108851, 185.216179)"><g><path d="M 8.75 -16.15625 C 10.875 -16.15625 12.5 -15.691406 13.625 -14.765625 C 14.757812 -13.835938 15.328125 -12.429688 15.328125 -10.546875 L 15.328125 0 L 12.3125 0 L 11.484375 -2.15625 L 11.375 -2.15625 C 10.914062 -1.582031 10.453125 -1.117188 9.984375 -0.765625 C 9.515625 -0.410156 8.972656 -0.148438 8.359375 0.015625 C 7.742188 0.191406 7 0.28125 6.125 0.28125 C 5.1875 0.28125 4.347656 0.101562 3.609375 -0.25 C 2.867188 -0.613281 2.285156 -1.164062 1.859375 -1.90625 C 1.429688 -2.644531 1.21875 -3.585938 1.21875 -4.734375 C 1.21875 -6.410156 1.804688 -7.644531 2.984375 -8.4375 C 4.171875 -9.238281 5.941406 -9.679688 8.296875 -9.765625 L 11.046875 -9.859375 L 11.046875 -10.546875 C 11.046875 -11.378906 10.828125 -11.988281 10.390625 -12.375 C 9.960938 -12.757812 9.359375 -12.953125 8.578125 -12.953125 C 7.816406 -12.953125 7.066406 -12.84375 6.328125 -12.625 C 5.585938 -12.414062 4.851562 -12.144531 4.125 -11.8125 L 2.6875 -14.734375 C 3.53125 -15.171875 4.472656 -15.515625 5.515625 -15.765625 C 6.554688 -16.023438 7.632812 -16.15625 8.75 -16.15625 Z M 11.046875 -7.328125 L 9.375 -7.28125 C 7.976562 -7.238281 7.007812 -6.984375 6.46875 -6.515625 C 5.925781 -6.054688 5.65625 -5.453125 5.65625 -4.703125 C 5.65625 -4.035156 5.847656 -3.5625 6.234375 -3.28125 C 6.617188 -3.007812 7.125 -2.875 7.75 -2.875 C 8.675781 -2.875 9.457031 -3.144531 10.09375 -3.6875 C 10.726562 -4.238281 11.046875 -5.019531 11.046875 -6.03125 Z M 11.046875 -7.328125 "/></g></g></g><g fill="#fffef0" fill-opacity="1"><g transform="translate(232.982248, 185.216179)"><g><path d="M 11.109375 -16.125 C 11.316406 -16.125 11.566406 -16.113281 11.859375 -16.09375 C 12.148438 -16.070312 12.382812 -16.039062 12.5625 -16 L 12.234375 -11.953125 C 12.085938 -11.992188 11.882812 -12.023438 11.625 -12.046875 C 11.375 -12.078125 11.148438 -12.09375 10.953125 -12.09375 C 10.398438 -12.09375 9.859375 -12.019531 9.328125 -11.875 C 8.804688 -11.738281 8.335938 -11.507812 7.921875 -11.1875 C 7.515625 -10.875 7.1875 -10.457031 6.9375 -9.9375 C 6.695312 -9.425781 6.578125 -8.800781 6.578125 -8.0625 L 6.578125 0 L 2.265625 0 L 2.265625 -15.828125 L 5.53125 -15.828125 L 6.171875 -13.171875 L 6.390625 -13.171875 C 6.703125 -13.703125 7.085938 -14.191406 7.546875 -14.640625 C 8.015625 -15.097656 8.546875 -15.457031 9.140625 -15.71875 C 9.742188 -15.988281 10.398438 -16.125 11.109375 -16.125 Z M 11.109375 -16.125 "/></g></g></g><g fill="#fffef0" fill-opacity="1"><g transform="translate(245.509648, 185.216179)"><g><path d="M 0 -15.828125 L 4.734375 -15.828125 L 7.71875 -6.921875 C 7.8125 -6.640625 7.890625 -6.351562 7.953125 -6.0625 C 8.023438 -5.769531 8.082031 -5.46875 8.125 -5.15625 C 8.175781 -4.84375 8.210938 -4.515625 8.234375 -4.171875 L 8.328125 -4.171875 C 8.378906 -4.679688 8.453125 -5.15625 8.546875 -5.59375 C 8.648438 -6.039062 8.78125 -6.484375 8.9375 -6.921875 L 11.859375 -15.828125 L 16.5 -15.828125 L 9.796875 2.03125 C 9.390625 3.125 8.859375 4.035156 8.203125 4.765625 C 7.554688 5.492188 6.8125 6.039062 5.96875 6.40625 C 5.125 6.78125 4.195312 6.96875 3.1875 6.96875 C 2.695312 6.96875 2.269531 6.941406 1.90625 6.890625 C 1.550781 6.835938 1.242188 6.78125 0.984375 6.71875 L 0.984375 3.296875 C 1.179688 3.347656 1.429688 3.390625 1.734375 3.421875 C 2.035156 3.460938 2.351562 3.484375 2.6875 3.484375 C 3.289062 3.484375 3.8125 3.351562 4.25 3.09375 C 4.6875 2.84375 5.050781 2.503906 5.34375 2.078125 C 5.632812 1.648438 5.863281 1.179688 6.03125 0.671875 L 6.28125 -0.109375 Z M 0 -15.828125 "/></g></g></g><g fill="#fffef0" fill-opacity="1"><g transform="translate(261.363788, 185.216179)"><g/></g></g><g fill="#fffef0" fill-opacity="1"><g transform="translate(268.256965, 185.216179)"><g><path d="M 9.046875 -12.171875 L 13.375 -20.703125 L 18.09375 -20.703125 L 11.234375 -8.0625 L 11.234375 0 L 6.875 0 L 6.875 -7.921875 L 0 -20.703125 L 4.765625 -20.703125 Z M 9.046875 -12.171875 "/></g></g></g><g fill="#fffef0" fill-opacity="1"><g transform="translate(285.710772, 185.216179)"><g><path d="M 16.65625 -7.9375 C 16.65625 -6.625 16.476562 -5.457031 16.125 -4.4375 C 15.769531 -3.414062 15.253906 -2.550781 14.578125 -1.84375 C 13.898438 -1.144531 13.085938 -0.613281 12.140625 -0.25 C 11.191406 0.101562 10.125 0.28125 8.9375 0.28125 C 7.820312 0.28125 6.796875 0.101562 5.859375 -0.25 C 4.929688 -0.613281 4.125 -1.144531 3.4375 -1.84375 C 2.757812 -2.550781 2.234375 -3.414062 1.859375 -4.4375 C 1.484375 -5.457031 1.296875 -6.625 1.296875 -7.9375 C 1.296875 -9.695312 1.609375 -11.1875 2.234375 -12.40625 C 2.859375 -13.625 3.742188 -14.546875 4.890625 -15.171875 C 6.046875 -15.804688 7.421875 -16.125 9.015625 -16.125 C 10.503906 -16.125 11.820312 -15.804688 12.96875 -15.171875 C 14.113281 -14.546875 15.015625 -13.625 15.671875 -12.40625 C 16.328125 -11.1875 16.65625 -9.695312 16.65625 -7.9375 Z M 5.703125 -7.9375 C 5.703125 -6.90625 5.816406 -6.035156 6.046875 -5.328125 C 6.273438 -4.617188 6.628906 -4.082031 7.109375 -3.71875 C 7.585938 -3.363281 8.210938 -3.1875 8.984375 -3.1875 C 9.753906 -3.1875 10.375 -3.363281 10.84375 -3.71875 C 11.320312 -4.082031 11.671875 -4.617188 11.890625 -5.328125 C 12.117188 -6.035156 12.234375 -6.90625 12.234375 -7.9375 C 12.234375 -8.988281 12.117188 -9.859375 11.890625 -10.546875 C 11.671875 -11.242188 11.320312 -11.765625 10.84375 -12.109375 C 10.363281 -12.460938 9.738281 -12.640625 8.96875 -12.640625 C 7.820312 -12.640625 6.988281 -12.25 6.46875 -11.46875 C 5.957031 -10.6875 5.703125 -9.507812 5.703125 -7.9375 Z M 5.703125 -7.9375 "/></g></g></g><g fill="#fffef0" fill-opacity="1"><g transform="translate(303.023015, 185.216179)"><g><path d="M 16.796875 -15.828125 L 16.796875 0 L 13.484375 0 L 12.90625 -2.03125 L 12.671875 -2.03125 C 12.328125 -1.488281 11.898438 -1.046875 11.390625 -0.703125 C 10.890625 -0.367188 10.332031 -0.125 9.71875 0.03125 C 9.101562 0.195312 8.460938 0.28125 7.796875 0.28125 C 6.671875 0.28125 5.6875 0.0820312 4.84375 -0.3125 C 4 -0.71875 3.34375 -1.34375 2.875 -2.1875 C 2.414062 -3.039062 2.1875 -4.148438 2.1875 -5.515625 L 2.1875 -15.828125 L 6.5 -15.828125 L 6.5 -6.578125 C 6.5 -5.453125 6.703125 -4.597656 7.109375 -4.015625 C 7.515625 -3.441406 8.160156 -3.15625 9.046875 -3.15625 C 9.921875 -3.15625 10.609375 -3.351562 11.109375 -3.75 C 11.609375 -4.15625 11.957031 -4.75 12.15625 -5.53125 C 12.363281 -6.3125 12.46875 -7.265625 12.46875 -8.390625 L 12.46875 -15.828125 Z M 16.796875 -15.828125 "/></g></g></g><g fill="#fffef0" fill-opacity="1"><g transform="translate(321.439453, 185.216179)"><g><path d="M 8.9375 -3.15625 C 9.40625 -3.15625 9.863281 -3.203125 10.3125 -3.296875 C 10.757812 -3.390625 11.207031 -3.507812 11.65625 -3.65625 L 11.65625 -0.4375 C 11.1875 -0.226562 10.609375 -0.0546875 9.921875 0.078125 C 9.242188 0.210938 8.5 0.28125 7.6875 0.28125 C 6.738281 0.28125 5.890625 0.128906 5.140625 -0.171875 C 4.390625 -0.484375 3.800781 -1.019531 3.375 -1.78125 C 2.945312 -2.539062 2.734375 -3.597656 2.734375 -4.953125 L 2.734375 -12.59375 L 0.671875 -12.59375 L 0.671875 -14.421875 L 3.046875 -15.859375 L 4.296875 -19.203125 L 7.046875 -19.203125 L 7.046875 -15.828125 L 11.484375 -15.828125 L 11.484375 -12.59375 L 7.046875 -12.59375 L 7.046875 -4.953125 C 7.046875 -4.347656 7.21875 -3.894531 7.5625 -3.59375 C 7.90625 -3.300781 8.363281 -3.15625 8.9375 -3.15625 Z M 8.9375 -3.15625 "/></g></g></g><g fill="#fffef0" fill-opacity="1"><g transform="translate(333.386443, 185.216179)"><g><path d="M 6.578125 -22.03125 L 6.578125 -17.546875 C 6.578125 -16.765625 6.550781 -16.019531 6.5 -15.3125 C 6.445312 -14.601562 6.410156 -14.101562 6.390625 -13.8125 L 6.609375 -13.8125 C 6.953125 -14.351562 7.359375 -14.789062 7.828125 -15.125 C 8.296875 -15.46875 8.8125 -15.71875 9.375 -15.875 C 9.9375 -16.039062 10.546875 -16.125 11.203125 -16.125 C 12.347656 -16.125 13.34375 -15.921875 14.1875 -15.515625 C 15.039062 -15.117188 15.703125 -14.492188 16.171875 -13.640625 C 16.640625 -12.785156 16.875 -11.679688 16.875 -10.328125 L 16.875 0 L 12.5625 0 L 12.5625 -9.25 C 12.5625 -10.382812 12.351562 -11.238281 11.9375 -11.8125 C 11.519531 -12.382812 10.878906 -12.671875 10.015625 -12.671875 C 9.140625 -12.671875 8.453125 -12.46875 7.953125 -12.0625 C 7.453125 -11.664062 7.097656 -11.078125 6.890625 -10.296875 C 6.679688 -9.523438 6.578125 -8.578125 6.578125 -7.453125 L 6.578125 0 L 2.265625 0 L 2.265625 -22.03125 Z M 6.578125 -22.03125 "/></g></g></g><g fill="#fffef0" fill-opacity="1"><g transform="translate(131.983486, 213.716177)"><g><path d="M 2.609375 0 L 2.609375 -20.703125 L 7 -20.703125 L 7 -3.625 L 15.390625 -3.625 L 15.390625 0 Z M 2.609375 0 "/></g></g></g><g fill="#fffef0" fill-opacity="1"><g transform="translate(147.724376, 213.716177)"><g><path d="M 8.75 -16.15625 C 10.875 -16.15625 12.5 -15.691406 13.625 -14.765625 C 14.757812 -13.835938 15.328125 -12.429688 15.328125 -10.546875 L 15.328125 0 L 12.3125 0 L 11.484375 -2.15625 L 11.375 -2.15625 C 10.914062 -1.582031 10.453125 -1.117188 9.984375 -0.765625 C 9.515625 -0.410156 8.972656 -0.148438 8.359375 0.015625 C 7.742188 0.191406 7 0.28125 6.125 0.28125 C 5.1875 0.28125 4.347656 0.101562 3.609375 -0.25 C 2.867188 -0.613281 2.285156 -1.164062 1.859375 -1.90625 C 1.429688 -2.644531 1.21875 -3.585938 1.21875 -4.734375 C 1.21875 -6.410156 1.804688 -7.644531 2.984375 -8.4375 C 4.171875 -9.238281 5.941406 -9.679688 8.296875 -9.765625 L 11.046875 -9.859375 L 11.046875 -10.546875 C 11.046875 -11.378906 10.828125 -11.988281 10.390625 -12.375 C 9.960938 -12.757812 9.359375 -12.953125 8.578125 -12.953125 C 7.816406 -12.953125 7.066406 -12.84375 6.328125 -12.625 C 5.585938 -12.414062 4.851562 -12.144531 4.125 -11.8125 L 2.6875 -14.734375 C 3.53125 -15.171875 4.472656 -15.515625 5.515625 -15.765625 C 6.554688 -16.023438 7.632812 -16.15625 8.75 -16.15625 Z M 11.046875 -7.328125 L 9.375 -7.28125 C 7.976562 -7.238281 7.007812 -6.984375 6.46875 -6.515625 C 5.925781 -6.054688 5.65625 -5.453125 5.65625 -4.703125 C 5.65625 -4.035156 5.847656 -3.5625 6.234375 -3.28125 C 6.617188 -3.007812 7.125 -2.875 7.75 -2.875 C 8.675781 -2.875 9.457031 -3.144531 10.09375 -3.6875 C 10.726562 -4.238281 11.046875 -5.019531 11.046875 -6.03125 Z M 11.046875 -7.328125 "/></g></g></g><g fill="#fffef0" fill-opacity="1"><g transform="translate(164.597773, 213.716177)"><g><path d="M 6.578125 -22.03125 L 6.578125 -16.90625 C 6.578125 -16.3125 6.5625 -15.722656 6.53125 -15.140625 C 6.5 -14.554688 6.460938 -14.101562 6.421875 -13.78125 L 6.578125 -13.78125 C 6.992188 -14.425781 7.5625 -14.976562 8.28125 -15.4375 C 9 -15.894531 9.929688 -16.125 11.078125 -16.125 C 12.847656 -16.125 14.285156 -15.429688 15.390625 -14.046875 C 16.492188 -12.660156 17.046875 -10.625 17.046875 -7.9375 C 17.046875 -6.132812 16.789062 -4.625 16.28125 -3.40625 C 15.769531 -2.1875 15.054688 -1.265625 14.140625 -0.640625 C 13.222656 -0.0234375 12.160156 0.28125 10.953125 0.28125 C 9.796875 0.28125 8.878906 0.0703125 8.203125 -0.34375 C 7.535156 -0.757812 6.992188 -1.222656 6.578125 -1.734375 L 6.28125 -1.734375 L 5.5625 0 L 2.265625 0 L 2.265625 -22.03125 Z M 9.6875 -12.671875 C 8.925781 -12.671875 8.320312 -12.515625 7.875 -12.203125 C 7.4375 -11.890625 7.113281 -11.421875 6.90625 -10.796875 C 6.707031 -10.179688 6.597656 -9.394531 6.578125 -8.4375 L 6.578125 -7.96875 C 6.578125 -6.4375 6.800781 -5.257812 7.25 -4.4375 C 7.707031 -3.625 8.539062 -3.21875 9.75 -3.21875 C 10.632812 -3.21875 11.335938 -3.625 11.859375 -4.4375 C 12.378906 -5.257812 12.640625 -6.445312 12.640625 -8 C 12.640625 -9.550781 12.375 -10.71875 11.84375 -11.5 C 11.320312 -12.28125 10.601562 -12.671875 9.6875 -12.671875 Z M 9.6875 -12.671875 "/></g></g></g><g fill="#fffef0" fill-opacity="1"><g transform="translate(182.306393, 213.716177)"><g><path d="M 13.3125 -4.703125 C 13.3125 -3.628906 13.054688 -2.71875 12.546875 -1.96875 C 12.046875 -1.226562 11.296875 -0.664062 10.296875 -0.28125 C 9.296875 0.09375 8.050781 0.28125 6.5625 0.28125 C 5.457031 0.28125 4.507812 0.207031 3.71875 0.0625 C 2.925781 -0.0703125 2.128906 -0.304688 1.328125 -0.640625 L 1.328125 -4.203125 C 2.191406 -3.816406 3.113281 -3.5 4.09375 -3.25 C 5.082031 -3 5.953125 -2.875 6.703125 -2.875 C 7.535156 -2.875 8.132812 -3 8.5 -3.25 C 8.863281 -3.5 9.046875 -3.828125 9.046875 -4.234375 C 9.046875 -4.492188 8.972656 -4.726562 8.828125 -4.9375 C 8.679688 -5.15625 8.367188 -5.398438 7.890625 -5.671875 C 7.410156 -5.941406 6.65625 -6.289062 5.625 -6.71875 C 4.632812 -7.132812 3.816406 -7.554688 3.171875 -7.984375 C 2.535156 -8.410156 2.0625 -8.910156 1.75 -9.484375 C 1.445312 -10.066406 1.296875 -10.804688 1.296875 -11.703125 C 1.296875 -13.171875 1.863281 -14.273438 3 -15.015625 C 4.144531 -15.753906 5.671875 -16.125 7.578125 -16.125 C 8.554688 -16.125 9.488281 -16.023438 10.375 -15.828125 C 11.269531 -15.628906 12.191406 -15.3125 13.140625 -14.875 L 11.84375 -11.765625 C 11.050781 -12.109375 10.304688 -12.382812 9.609375 -12.59375 C 8.921875 -12.8125 8.21875 -12.921875 7.5 -12.921875 C 6.875 -12.921875 6.398438 -12.835938 6.078125 -12.671875 C 5.753906 -12.503906 5.59375 -12.242188 5.59375 -11.890625 C 5.59375 -11.640625 5.675781 -11.414062 5.84375 -11.21875 C 6.007812 -11.019531 6.328125 -10.800781 6.796875 -10.5625 C 7.273438 -10.320312 7.976562 -10.007812 8.90625 -9.625 C 9.800781 -9.257812 10.578125 -8.875 11.234375 -8.46875 C 11.898438 -8.070312 12.410156 -7.578125 12.765625 -6.984375 C 13.128906 -6.398438 13.3125 -5.640625 13.3125 -4.703125 Z M 13.3125 -4.703125 "/></g></g></g><g fill="#fffef0" fill-opacity="1"><g transform="translate(196.079552, 213.716177)"><g/></g></g><g fill="#fffef0" fill-opacity="1"><g transform="translate(202.972728, 213.716177)"><g><path d="M 15.28125 0 L 13.78125 -4.921875 L 6.234375 -4.921875 L 4.734375 0 L 0 0 L 7.3125 -20.78125 L 12.671875 -20.78125 L 20.015625 0 Z M 12.734375 -8.609375 L 11.234375 -13.421875 C 11.140625 -13.742188 11.015625 -14.15625 10.859375 -14.65625 C 10.703125 -15.164062 10.546875 -15.679688 10.390625 -16.203125 C 10.234375 -16.734375 10.109375 -17.191406 10.015625 -17.578125 C 9.921875 -17.191406 9.789062 -16.710938 9.625 -16.140625 C 9.457031 -15.566406 9.296875 -15.023438 9.140625 -14.515625 C 8.992188 -14.003906 8.890625 -13.640625 8.828125 -13.421875 L 7.328125 -8.609375 Z M 12.734375 -8.609375 "/></g></g></g><g fill="#fffef0" fill-opacity="1"><g transform="translate(222.337641, 213.716177)"><g><path d="M 8.6875 0.28125 C 7.125 0.28125 5.789062 -0.00390625 4.6875 -0.578125 C 3.582031 -1.148438 2.738281 -2.035156 2.15625 -3.234375 C 1.582031 -4.429688 1.296875 -5.960938 1.296875 -7.828125 C 1.296875 -9.765625 1.625 -11.34375 2.28125 -12.5625 C 2.9375 -13.789062 3.847656 -14.691406 5.015625 -15.265625 C 6.179688 -15.835938 7.535156 -16.125 9.078125 -16.125 C 10.171875 -16.125 11.113281 -16.015625 11.90625 -15.796875 C 12.707031 -15.585938 13.40625 -15.335938 14 -15.046875 L 12.734375 -11.703125 C 12.046875 -11.984375 11.410156 -12.207031 10.828125 -12.375 C 10.242188 -12.550781 9.660156 -12.640625 9.078125 -12.640625 C 8.316406 -12.640625 7.6875 -12.460938 7.1875 -12.109375 C 6.6875 -11.753906 6.3125 -11.222656 6.0625 -10.515625 C 5.820312 -9.804688 5.703125 -8.921875 5.703125 -7.859375 C 5.703125 -6.804688 5.832031 -5.9375 6.09375 -5.25 C 6.363281 -4.5625 6.75 -4.050781 7.25 -3.71875 C 7.75 -3.382812 8.359375 -3.21875 9.078125 -3.21875 C 9.972656 -3.21875 10.769531 -3.335938 11.46875 -3.578125 C 12.164062 -3.816406 12.847656 -4.15625 13.515625 -4.59375 L 13.515625 -0.890625 C 12.847656 -0.472656 12.148438 -0.175781 11.421875 0 C 10.703125 0.1875 9.789062 0.28125 8.6875 0.28125 Z M 8.6875 0.28125 "/></g></g></g><g fill="#fffef0" fill-opacity="1"><g transform="translate(236.60627, 213.716177)"><g><path d="M 8.75 -16.15625 C 10.875 -16.15625 12.5 -15.691406 13.625 -14.765625 C 14.757812 -13.835938 15.328125 -12.429688 15.328125 -10.546875 L 15.328125 0 L 12.3125 0 L 11.484375 -2.15625 L 11.375 -2.15625 C 10.914062 -1.582031 10.453125 -1.117188 9.984375 -0.765625 C 9.515625 -0.410156 8.972656 -0.148438 8.359375 0.015625 C 7.742188 0.191406 7 0.28125 6.125 0.28125 C 5.1875 0.28125 4.347656 0.101562 3.609375 -0.25 C 2.867188 -0.613281 2.285156 -1.164062 1.859375 -1.90625 C 1.429688 -2.644531 1.21875 -3.585938 1.21875 -4.734375 C 1.21875 -6.410156 1.804688 -7.644531 2.984375 -8.4375 C 4.171875 -9.238281 5.941406 -9.679688 8.296875 -9.765625 L 11.046875 -9.859375 L 11.046875 -10.546875 C 11.046875 -11.378906 10.828125 -11.988281 10.390625 -12.375 C 9.960938 -12.757812 9.359375 -12.953125 8.578125 -12.953125 C 7.816406 -12.953125 7.066406 -12.84375 6.328125 -12.625 C 5.585938 -12.414062 4.851562 -12.144531 4.125 -11.8125 L 2.6875 -14.734375 C 3.53125 -15.171875 4.472656 -15.515625 5.515625 -15.765625 C 6.554688 -16.023438 7.632812 -16.15625 8.75 -16.15625 Z M 11.046875 -7.328125 L 9.375 -7.28125 C 7.976562 -7.238281 7.007812 -6.984375 6.46875 -6.515625 C 5.925781 -6.054688 5.65625 -5.453125 5.65625 -4.703125 C 5.65625 -4.035156 5.847656 -3.5625 6.234375 -3.28125 C 6.617188 -3.007812 7.125 -2.875 7.75 -2.875 C 8.675781 -2.875 9.457031 -3.144531 10.09375 -3.6875 C 10.726562 -4.238281 11.046875 -5.019531 11.046875 -6.03125 Z M 11.046875 -7.328125 "/></g></g></g><g fill="#fffef0" fill-opacity="1"><g transform="translate(253.479667, 213.716177)"><g><path d="M 7.28125 0.28125 C 5.507812 0.28125 4.066406 -0.40625 2.953125 -1.78125 C 1.847656 -3.164062 1.296875 -5.203125 1.296875 -7.890625 C 1.296875 -10.597656 1.859375 -12.644531 2.984375 -14.03125 C 4.109375 -15.425781 5.578125 -16.125 7.390625 -16.125 C 8.148438 -16.125 8.816406 -16.019531 9.390625 -15.8125 C 9.960938 -15.601562 10.457031 -15.320312 10.875 -14.96875 C 11.300781 -14.625 11.660156 -14.238281 11.953125 -13.8125 L 12.09375 -13.8125 C 12.039062 -14.113281 11.972656 -14.554688 11.890625 -15.140625 C 11.804688 -15.734375 11.765625 -16.34375 11.765625 -16.96875 L 11.765625 -22.03125 L 16.09375 -22.03125 L 16.09375 0 L 12.78125 0 L 11.953125 -2.046875 L 11.765625 -2.046875 C 11.492188 -1.617188 11.148438 -1.226562 10.734375 -0.875 C 10.328125 -0.519531 9.835938 -0.238281 9.265625 -0.03125 C 8.703125 0.175781 8.039062 0.28125 7.28125 0.28125 Z M 8.796875 -3.15625 C 9.972656 -3.15625 10.800781 -3.503906 11.28125 -4.203125 C 11.769531 -4.910156 12.03125 -5.972656 12.0625 -7.390625 L 12.0625 -7.859375 C 12.0625 -9.398438 11.828125 -10.578125 11.359375 -11.390625 C 10.890625 -12.203125 10.007812 -12.609375 8.71875 -12.609375 C 7.769531 -12.609375 7.023438 -12.195312 6.484375 -11.375 C 5.941406 -10.5625 5.671875 -9.378906 5.671875 -7.828125 C 5.671875 -6.285156 5.941406 -5.117188 6.484375 -4.328125 C 7.035156 -3.546875 7.804688 -3.15625 8.796875 -3.15625 Z M 8.796875 -3.15625 "/></g></g></g><g fill="#fffef0" fill-opacity="1"><g transform="translate(271.188288, 213.716177)"><g><path d="M 8.796875 -16.125 C 10.253906 -16.125 11.507812 -15.84375 12.5625 -15.28125 C 13.625 -14.71875 14.441406 -13.90625 15.015625 -12.84375 C 15.597656 -11.78125 15.890625 -10.476562 15.890625 -8.9375 L 15.890625 -6.84375 L 5.671875 -6.84375 C 5.722656 -5.625 6.085938 -4.664062 6.765625 -3.96875 C 7.453125 -3.28125 8.40625 -2.9375 9.625 -2.9375 C 10.632812 -2.9375 11.5625 -3.035156 12.40625 -3.234375 C 13.25 -3.441406 14.113281 -3.753906 15 -4.171875 L 15 -0.828125 C 14.21875 -0.441406 13.394531 -0.160156 12.53125 0.015625 C 11.675781 0.191406 10.644531 0.28125 9.4375 0.28125 C 7.84375 0.28125 6.4375 -0.0078125 5.21875 -0.59375 C 4 -1.175781 3.039062 -2.066406 2.34375 -3.265625 C 1.644531 -4.460938 1.296875 -5.972656 1.296875 -7.796875 C 1.296875 -9.648438 1.609375 -11.191406 2.234375 -12.421875 C 2.867188 -13.660156 3.75 -14.585938 4.875 -15.203125 C 6 -15.816406 7.304688 -16.125 8.796875 -16.125 Z M 8.828125 -13.0625 C 7.984375 -13.0625 7.285156 -12.789062 6.734375 -12.25 C 6.179688 -11.707031 5.863281 -10.863281 5.78125 -9.71875 L 11.84375 -9.71875 C 11.832031 -10.351562 11.710938 -10.921875 11.484375 -11.421875 C 11.265625 -11.921875 10.9375 -12.316406 10.5 -12.609375 C 10.0625 -12.910156 9.503906 -13.0625 8.828125 -13.0625 Z M 8.828125 -13.0625 "/></g></g></g><g fill="#fffef0" fill-opacity="1"><g transform="translate(287.679463, 213.716177)"><g><path d="M 20.859375 -16.125 C 22.648438 -16.125 24.003906 -15.664062 24.921875 -14.75 C 25.847656 -13.832031 26.3125 -12.359375 26.3125 -10.328125 L 26.3125 0 L 21.984375 0 L 21.984375 -9.25 C 21.984375 -10.382812 21.785156 -11.238281 21.390625 -11.8125 C 21.003906 -12.382812 20.40625 -12.671875 19.59375 -12.671875 C 18.457031 -12.671875 17.644531 -12.257812 17.15625 -11.4375 C 16.675781 -10.625 16.4375 -9.457031 16.4375 -7.9375 L 16.4375 0 L 12.125 0 L 12.125 -9.25 C 12.125 -10 12.035156 -10.628906 11.859375 -11.140625 C 11.691406 -11.648438 11.429688 -12.03125 11.078125 -12.28125 C 10.734375 -12.539062 10.289062 -12.671875 9.75 -12.671875 C 8.9375 -12.671875 8.300781 -12.46875 7.84375 -12.0625 C 7.394531 -11.664062 7.070312 -11.078125 6.875 -10.296875 C 6.675781 -9.523438 6.578125 -8.578125 6.578125 -7.453125 L 6.578125 0 L 2.265625 0 L 2.265625 -15.828125 L 5.5625 -15.828125 L 6.140625 -13.8125 L 6.390625 -13.8125 C 6.710938 -14.351562 7.113281 -14.789062 7.59375 -15.125 C 8.082031 -15.46875 8.617188 -15.71875 9.203125 -15.875 C 9.785156 -16.039062 10.378906 -16.125 10.984375 -16.125 C 12.148438 -16.125 13.132812 -15.9375 13.9375 -15.5625 C 14.75 -15.1875 15.367188 -14.601562 15.796875 -13.8125 L 16.1875 -13.8125 C 16.65625 -14.625 17.320312 -15.210938 18.1875 -15.578125 C 19.050781 -15.941406 19.941406 -16.125 20.859375 -16.125 Z M 20.859375 -16.125 "/></g></g></g><g fill="#fffef0" fill-opacity="1"><g transform="translate(315.509867, 213.716177)"><g><path d="M 0 -15.828125 L 4.734375 -15.828125 L 7.71875 -6.921875 C 7.8125 -6.640625 7.890625 -6.351562 7.953125 -6.0625 C 8.023438 -5.769531 8.082031 -5.46875 8.125 -5.15625 C 8.175781 -4.84375 8.210938 -4.515625 8.234375 -4.171875 L 8.328125 -4.171875 C 8.378906 -4.679688 8.453125 -5.15625 8.546875 -5.59375 C 8.648438 -6.039062 8.78125 -6.484375 8.9375 -6.921875 L 11.859375 -15.828125 L 16.5 -15.828125 L 9.796875 2.03125 C 9.390625 3.125 8.859375 4.035156 8.203125 4.765625 C 7.554688 5.492188 6.8125 6.039062 5.96875 6.40625 C 5.125 6.78125 4.195312 6.96875 3.1875 6.96875 C 2.695312 6.96875 2.269531 6.941406 1.90625 6.890625 C 1.550781 6.835938 1.242188 6.78125 0.984375 6.71875 L 0.984375 3.296875 C 1.179688 3.347656 1.429688 3.390625 1.734375 3.421875 C 2.035156 3.460938 2.351562 3.484375 2.6875 3.484375 C 3.289062 3.484375 3.8125 3.351562 4.25 3.09375 C 4.6875 2.84375 5.050781 2.503906 5.34375 2.078125 C 5.632812 1.648438 5.863281 1.179688 6.03125 0.671875 L 6.28125 -0.109375 Z M 0 -15.828125 "/></g></g></g><path stroke-linecap="butt" transform="matrix(0, 0.75, -0.75, 0, 123.354488, 157.425179)" fill="none" stroke-linejoin="miter" d="M 0.00080265 1.498693 L 84.1206 1.498693 " stroke="#ffffff" stroke-width="3" stroke-opacity="1" stroke-miterlimit="4"/></svg>